<svg xmlns="http://www.w3.org/2000/svg" xmlns:xlink="http://www.w3.org/1999/xlink" version="1.1" x="0px" y="0px" viewBox="0 0 100 125" enable-background="new 0 0 100 100" xml:space="preserve"><path d="M46.808,9.927h-4.37l0.021-2.843c-0.157-3.531-3.046-6.354-6.617-6.354s-6.459,2.823-6.617,6.354v2.843h-4.381v2.941h4.368  c0.113,3.574,3.031,6.438,6.631,6.438c3.599,0,6.518-2.864,6.629-6.438h4.336V9.927z"/><path d="M83.132,26.555c-2.65-1.295-6.149-2.071-8.568-2.463v-6.721H74.56c0-0.012,0.004-0.024,0.004-0.036  c0-3.666-2.97-6.635-6.634-6.635c-3.663,0-6.633,2.969-6.633,6.635c0,0.012,0.003,0.023,0.003,0.036h-0.006v7.581h-1.097  c-3.062,0-5.074,1.416-6.371,3.086c-1.258-3.889-4.583-7.025-9.415-7.025l-18.003-0.007c-5.685,0-10.086,4.636-10.086,10.421v27.031  H8.244v28.799h13.21v-7.812h4.049l-0.002,19.805h8.549l0.002-19.805h2.887l-0.005,19.805h8.882l0.003-20.696h8.007V47.424h3.021  v34.149h-6.22l-0.777,7.399h9.502v10.276h7.053l-0.005-10.283h2.862v10.283h7.023V88.966h8.737l-3.094-32.183  c2.897,0.902,8.241,1.446,11.285-2.453C99.256,46.59,92.963,31.362,83.132,26.555z"/><text x="0" y="115" fill="#000000" font-size="5px" font-weight="bold" font-family="'Helvetica Neue', Helvetica, Arial-Unicode, Arial, Sans-serif">Created by Luis Prado</text><text x="0" y="120" fill="#000000" font-size="5px" font-weight="bold" font-family="'Helvetica Neue', Helvetica, Arial-Unicode, Arial, Sans-serif">from the Noun Project</text></svg>